<svg width="24" height="24" viewBox="0 0 24 24" fill="none" xmlns="http://www.w3.org/2000/svg">
<path d="M13.4963 19.5621C13.4963 19.8284 13.3905 20.0838 13.2022 20.2721C13.0139 20.4604 12.7585 20.5662 12.4922 20.5662C12.2259 20.5662 11.9705 20.4604 11.7822 20.2721C11.5939 20.0838 11.4881 19.8284 11.4881 19.5621L11.4952 13.4881L5.42112 13.4952C5.15482 13.4952 4.89942 13.3894 4.71112 13.2011C4.52282 13.0128 4.41703 12.7574 4.41703 12.4911C4.41703 12.2248 4.52282 11.9694 4.71112 11.7811C4.89942 11.5928 5.15482 11.487 5.42112 11.487L11.4952 11.494L11.4881 5.42C11.4881 5.1537 11.5939 4.8983 11.7822 4.71C11.9705 4.5217 12.2259 4.41591 12.4922 4.41591C12.7585 4.41591 13.0139 4.5217 13.2022 4.71C13.3905 4.8983 13.4963 5.1537 13.4963 5.42L13.4892 11.494L19.5633 11.487C19.8296 11.487 20.085 11.5928 20.2733 11.7811C20.4616 11.9694 20.5673 12.2248 20.5673 12.4911C20.5673 12.7574 20.4616 13.0128 20.2733 13.2011C20.085 13.3894 19.8296 13.4952 19.5633 13.4952L13.4892 13.4881L13.4963 19.5621Z" fill="white"/>
</svg>
